{
    "asset" : {
        "generator" : "Khronos glTF Blender I/O v1.7.33",
        "version" : "2.0"
    },
    "scene" : 0,
    "scenes" : [
        {
            "name" : "Scene",
            "nodes" : [
                0
            ]
        }
    ],
    "nodes" : [
        {
            "mesh" : 0,
            "name" : "\u5e73\u9762"
        }
    ],
    "animations" : [
        {
            "channels" : [
                {
                    "sampler" : 0,
                    "target" : {
                        "node" : 0,
                        "path" : "weights"
                    }
                }
            ],
            "name" : "KeyAction.002",
            "samplers" : [
                {
                    "input" : 5,
                    "interpolation" : "LINEAR",
                    "output" : 6
                }
            ]
        },
        {
            "channels" : [
                {
                    "sampler" : 0,
                    "target" : {
                        "node" : 0,
                        "path" : "translation"
                    }
                },
                {
                    "sampler" : 1,
                    "target" : {
                        "node" : 0,
                        "path" : "rotation"
                    }
                },
                {
                    "sampler" : 2,
                    "target" : {
                        "node" : 0,
                        "path" : "scale"
                    }
                }
            ],
            "name" : "\u5e73\u9762Action",
            "samplers" : [
                {
                    "input" : 7,
                    "interpolation" : "STEP",
                    "output" : 8
                },
                {
                    "input" : 7,
                    "interpolation" : "STEP",
                    "output" : 9
                },
                {
                    "input" : 7,
                    "interpolation" : "STEP",
                    "output" : 10
                }
            ]
        }
    ],
    "meshes" : [
        {
            "extras" : {
                "targetNames" : [
                    "\u857e"
                ]
            },
            "name" : "\u5e73\u9762",
            "primitives" : [
                {
                    "attributes" : {
                        "POSITION" : 0,
                        "NORMAL" : 1
                    },
                    "indices" : 2,
                    "targets" : [
                        {
                            "POSITION" : 3,
                            "NORMAL" : 4
                        }
                    ]
                }
            ],
            "weights" : [
                1
            ]
        }
    ],
    "accessors" : [
        {
            "bufferView" : 0,
            "componentType" : 5126,
            "count" : 16640,
            "max" : [
                2.4002435207366943,
                0.519058346748352,
                2.3014819622039795
            ],
            "min" : [
                -1.981730341911316,
                0.011669619008898735,
                -2.277841329574585
            ],
            "type" : "VEC3"
        },
        {
            "bufferView" : 1,
            "componentType" : 5126,
            "count" : 16640,
            "type" : "VEC3"
        },
        {
            "bufferView" : 2,
            "componentType" : 5123,
            "count" : 24960,
            "type" : "SCALAR"
        },
        {
            "bufferView" : 3,
            "componentType" : 5126,
            "count" : 16640,
            "max" : [
                1.934281826019287,
                2.0185751914978027,
                2.2525084018707275
            ],
            "min" : [
                -2.3836781978607178,
                -0.1111745834350586,
                -2.276115894317627
            ],
            "type" : "VEC3"
        },
        {
            "bufferView" : 4,
            "componentType" : 5126,
            "count" : 16640,
            "type" : "VEC3"
        },
        {
            "bufferView" : 5,
            "componentType" : 5126,
            "count" : 201,
            "max" : [
                8.333333333333334
            ],
            "min" : [
                0
            ],
            "type" : "SCALAR"
        },
        {
            "bufferView" : 6,
            "componentType" : 5126,
            "count" : 201,
            "type" : "SCALAR"
        },
        {
            "bufferView" : 7,
            "componentType" : 5126,
            "count" : 1,
            "max" : [
                0.041666666666666664
            ],
            "min" : [
                0.041666666666666664
            ],
            "type" : "SCALAR"
        },
        {
            "bufferView" : 8,
            "componentType" : 5126,
            "count" : 1,
            "type" : "VEC3"
        },
        {
            "bufferView" : 9,
            "componentType" : 5126,
            "count" : 1,
            "type" : "VEC4"
        },
        {
            "bufferView" : 10,
            "componentType" : 5126,
            "count" : 1,
            "type" : "VEC3"
        }
    ],
    "bufferViews" : [
        {
            "buffer" : 0,
            "byteLength" : 199680,
            "byteOffset" : 0
        },
        {
            "buffer" : 0,
            "byteLength" : 199680,
            "byteOffset" : 199680
        },
        {
            "buffer" : 0,
            "byteLength" : 49920,
            "byteOffset" : 399360
        },
        {
            "buffer" : 0,
            "byteLength" : 199680,
            "byteOffset" : 449280
        },
        {
            "buffer" : 0,
            "byteLength" : 199680,
            "byteOffset" : 648960
        },
        {
            "buffer" : 0,
            "byteLength" : 804,
            "byteOffset" : 848640
        },
        {
            "buffer" : 0,
            "byteLength" : 804,
            "byteOffset" : 849444
        },
        {
            "buffer" : 0,
            "byteLength" : 4,
            "byteOffset" : 850248
        },
        {
            "buffer" : 0,
            "byteLength" : 12,
            "byteOffset" : 850252
        },
        {
            "buffer" : 0,
            "byteLength" : 16,
            "byteOffset" : 850264
        },
        {
            "buffer" : 0,
            "byteLength" : 12,
            "byteOffset" : 850280
        }
    ],
    "buffers" : [
        {
            "byteLength" : 850292,
            "uri" : "data:application/octet-stream;base64,"
        }
    ]
}
