{
    "asset" : {
        "generator" : "Khronos glTF Blender I/O v1.7.33",
        "version" : "2.0"
    },
    "scene" : 0,
    "scenes" : [
        {
            "name" : "Scene",
            "nodes" : [
                0
            ]
        }
    ],
    "nodes" : [
        {
            "mesh" : 0,
            "name" : "\u7403.012",
            "rotation" : [
                0,
                -0.14009548723697662,
                0,
                0.9901379942893982
            ],
            "scale" : [
                0.7631285190582275,
                0.6608597636222839,
                0.7631285190582275
            ]
        }
    ],
    "animations" : [
        {
            "channels" : [
                {
                    "sampler" : 0,
                    "target" : {
                        "node" : 0,
                        "path" : "weights"
                    }
                }
            ],
            "name" : "KeyAction.005",
            "samplers" : [
                {
                    "input" : 9,
                    "interpolation" : "LINEAR",
                    "output" : 10
                }
            ]
        },
        {
            "channels" : [
                {
                    "sampler" : 0,
                    "target" : {
                        "node" : 0,
                        "path" : "weights"
                    }
                }
            ],
            "name" : "\u7403.010Action.005",
            "samplers" : [
                {
                    "input" : 11,
                    "interpolation" : "LINEAR",
                    "output" : 12
                }
            ]
        }
    ],
    "materials" : [
        {
            "doubleSided" : true,
            "name" : "\u30de\u30c6\u30ea\u30a2\u30eb.002",
            "pbrMetallicRoughness" : {
                "metallicFactor" : 0
            }
        }
    ],
    "meshes" : [
        {
            "extras" : {
                "targetNames" : [
                    "\u30ad\u30fc 1",
                    "\u30a2\u30fc\u30de\u30c1\u30e5\u30a2"
                ]
            },
            "name" : "\u7403.016",
            "primitives" : [
                {
                    "attributes" : {
                        "POSITION" : 0,
                        "NORMAL" : 1,
                        "TEXCOORD_0" : 2,
                        "TEXCOORD_1" : 3
                    },
                    "indices" : 4,
                    "material" : 0,
                    "targets" : [
                        {
                            "POSITION" : 5,
                            "NORMAL" : 6
                        },
                        {
                            "POSITION" : 7,
                            "NORMAL" : 8
                        }
                    ]
                }
            ],
            "weights" : [
                0,
                0
            ]
        }
    ],
    "accessors" : [
        {
            "bufferView" : 0,
            "componentType" : 5126,
            "count" : 4384,
            "max" : [
                0.5624323487281799,
                2.3164796829223633,
                0.5546084642410278
            ],
            "min" : [
                -0.5455334186553955,
                -0.4171339273452759,
                -0.5654823780059814
            ],
            "type" : "VEC3"
        },
        {
            "bufferView" : 1,
            "componentType" : 5126,
            "count" : 4384,
            "type" : "VEC3"
        },
        {
            "bufferView" : 2,
            "componentType" : 5126,
            "count" : 4384,
            "type" : "VEC2"
        },
        {
            "bufferView" : 3,
            "componentType" : 5126,
            "count" : 4384,
            "type" : "VEC2"
        },
        {
            "bufferView" : 4,
            "componentType" : 5123,
            "count" : 8880,
            "type" : "SCALAR"
        },
        {
            "bufferView" : 5,
            "componentType" : 5126,
            "count" : 4384,
            "max" : [
                0,
                0,
                0
            ],
            "min" : [
                0,
                0,
                0
            ],
            "type" : "VEC3"
        },
        {
            "bufferView" : 6,
            "componentType" : 5126,
            "count" : 4384,
            "type" : "VEC3"
        },
        {
            "bufferView" : 7,
            "componentType" : 5126,
            "count" : 4384,
            "max" : [
                2.9952025413513184,
                0.020193547010421753,
                3.187047243118286
            ],
            "min" : [
                -3.221924304962158,
                -2.0179941654205322,
                -2.9414174556732178
            ],
            "type" : "VEC3"
        },
        {
            "bufferView" : 8,
            "componentType" : 5126,
            "count" : 4384,
            "type" : "VEC3"
        },
        {
            "bufferView" : 9,
            "componentType" : 5126,
            "count" : 101,
            "max" : [
                4.166666666666667
            ],
            "min" : [
                0
            ],
            "type" : "SCALAR"
        },
        {
            "bufferView" : 10,
            "componentType" : 5126,
            "count" : 202,
            "type" : "SCALAR"
        },
        {
            "bufferView" : 11,
            "componentType" : 5126,
            "count" : 201,
            "max" : [
                8.333333333333334
            ],
            "min" : [
                0
            ],
            "type" : "SCALAR"
        },
        {
            "bufferView" : 12,
            "componentType" : 5126,
            "count" : 402,
            "type" : "SCALAR"
        }
    ],
    "bufferViews" : [
        {
            "buffer" : 0,
            "byteLength" : 52608,
            "byteOffset" : 0
        },
        {
            "buffer" : 0,
            "byteLength" : 52608,
            "byteOffset" : 52608
        },
        {
            "buffer" : 0,
            "byteLength" : 35072,
            "byteOffset" : 105216
        },
        {
            "buffer" : 0,
            "byteLength" : 35072,
            "byteOffset" : 140288
        },
        {
            "buffer" : 0,
            "byteLength" : 17760,
            "byteOffset" : 175360
        },
        {
            "buffer" : 0,
            "byteLength" : 52608,
            "byteOffset" : 193120
        },
        {
            "buffer" : 0,
            "byteLength" : 52608,
            "byteOffset" : 245728
        },
        {
            "buffer" : 0,
            "byteLength" : 52608,
            "byteOffset" : 298336
        },
        {
            "buffer" : 0,
            "byteLength" : 52608,
            "byteOffset" : 350944
        },
        {
            "buffer" : 0,
            "byteLength" : 404,
            "byteOffset" : 403552
        },
        {
            "buffer" : 0,
            "byteLength" : 808,
            "byteOffset" : 403956
        },
        {
            "buffer" : 0,
            "byteLength" : 804,
            "byteOffset" : 404764
        },
        {
            "buffer" : 0,
            "byteLength" : 1608,
            "byteOffset" : 405568
        }
    ],
    "buffers" : [
        {
            "byteLength" : 407176,
            "uri" : "data:application/octet-stream;base64,"
        }
    ]
}
