{
  "asset": {
    "generator": "Khronos glTF Blender I/O v1.7.33",
    "version": "2.0"
  },
  "scene": 0,
  "scenes": [
    {
      "name": "Scene",
      "nodes": [0]
    }
  ],
  "nodes": [
    {
      "mesh": 0,
      "name": "\u5e73\u9762.003",
      "rotation": [0, 0.587785005569458, 0, -0.8090171813964844]
    }
  ],
  "animations": [
    {
      "channels": [
        {
          "sampler": 0,
          "target": {
            "node": 0,
            "path": "weights"
          }
        }
      ],
      "name": "Key.001Action.007",
      "samplers": [
        {
          "input": 16,
          "interpolation": "LINEAR",
          "output": 17
        }
      ]
    },
    {
      "channels": [
        {
          "sampler": 0,
          "target": {
            "node": 0,
            "path": "weights"
          }
        }
      ],
      "name": "\u5e73\u9762.009Action",
      "samplers": [
        {
          "input": 16,
          "interpolation": "LINEAR",
          "output": 18
        }
      ]
    }
  ],
  "materials": [
    {
      "doubleSided": true,
      "name": "\u30de\u30c6\u30ea\u30a2\u30eb.004",
      "pbrMetallicRoughness": {
        "metallicFactor": 0,
        "roughnessFactor": 0.5
      }
    },
    {
      "doubleSided": true,
      "name": "\u30de\u30c6\u30ea\u30a2\u30eb.005",
      "pbrMetallicRoughness": {
        "baseColorFactor": [
          0.8000000715255737, 0.5500397682189941, 0.16237905621528625, 1
        ],
        "metallicFactor": 0
      }
    }
  ],
  "meshes": [
    {
      "extras": {
        "targetNames": ["kaben", "kafun"]
      },
      "name": "\u5e73\u9762.009",
      "primitives": [
        {
          "attributes": {
            "POSITION": 0,
            "NORMAL": 1,
            "TEXCOORD_0": 2
          },
          "indices": 3,
          "material": 0,
          "targets": [
            {
              "POSITION": 4,
              "NORMAL": 5
            },
            {
              "POSITION": 6,
              "NORMAL": 7
            }
          ]
        },
        {
          "attributes": {
            "POSITION": 8,
            "NORMAL": 9,
            "TEXCOORD_0": 10
          },
          "indices": 11,
          "material": 1,
          "targets": [
            {
              "POSITION": 12,
              "NORMAL": 13
            },
            {
              "POSITION": 14,
              "NORMAL": 15
            }
          ]
        }
      ],
      "weights": [1, 0]
    }
  ],
  "accessors": [
    {
      "bufferView": 0,
      "componentType": 5126,
      "count": 185,
      "max": [2.5468130111694336, 0.07560556381940842, 2.353590250015259],
      "min": [-2.5468125343322754, 0.004087922628968954, -2.490736246109009],
      "type": "VEC3"
    },
    {
      "bufferView": 1,
      "componentType": 5126,
      "count": 185,
      "type": "VEC3"
    },
    {
      "bufferView": 2,
      "componentType": 5126,
      "count": 185,
      "type": "VEC2"
    },
    {
      "bufferView": 3,
      "componentType": 5123,
      "count": 720,
      "type": "SCALAR"
    },
    {
      "bufferView": 4,
      "componentType": 5126,
      "count": 185,
      "max": [2.32576322555542, 1.9219629764556885, 2.4250175952911377],
      "min": [-2.326207399368286, -0.008640732616186142, -1.9996919631958008],
      "type": "VEC3"
    },
    {
      "bufferView": 5,
      "componentType": 5126,
      "count": 185,
      "type": "VEC3"
    },
    {
      "bufferView": 6,
      "componentType": 5126,
      "count": 185,
      "max": [0, 0, 0],
      "min": [0, 0, 0],
      "type": "VEC3"
    },
    {
      "bufferView": 7,
      "componentType": 5126,
      "count": 185,
      "type": "VEC3"
    },
    {
      "bufferView": 8,
      "componentType": 5126,
      "count": 3794,
      "max": [0.09243253618478775, 1.4467859268188477, 0.09243253618478775],
      "min": [-0.09243253618478775, 0.11787229776382446, -0.09243253618478775],
      "type": "VEC3"
    },
    {
      "bufferView": 9,
      "componentType": 5126,
      "count": 3794,
      "type": "VEC3"
    },
    {
      "bufferView": 10,
      "componentType": 5126,
      "count": 3794,
      "type": "VEC2"
    },
    {
      "bufferView": 11,
      "componentType": 5123,
      "count": 3900,
      "type": "SCALAR"
    },
    {
      "bufferView": 12,
      "componentType": 5126,
      "count": 3794,
      "max": [0, 0, 0],
      "min": [0, 0, 0],
      "type": "VEC3"
    },
    {
      "bufferView": 13,
      "componentType": 5126,
      "count": 3794,
      "type": "VEC3"
    },
    {
      "bufferView": 14,
      "componentType": 5126,
      "count": 3794,
      "max": [0.6695767641067505, 0.022207111120224, 0.5695762038230896],
      "min": [-0.6695765852928162, -0.32363152503967285, -0.7040346264839172],
      "type": "VEC3"
    },
    {
      "bufferView": 15,
      "componentType": 5126,
      "count": 3794,
      "type": "VEC3"
    },
    {
      "bufferView": 16,
      "componentType": 5126,
      "count": 101,
      "max": [4.166666666666667],
      "min": [0],
      "type": "SCALAR"
    },
    {
      "bufferView": 17,
      "componentType": 5126,
      "count": 202,
      "type": "SCALAR"
    },
    {
      "bufferView": 18,
      "componentType": 5126,
      "count": 202,
      "type": "SCALAR"
    }
  ],
  "bufferViews": [
    {
      "buffer": 0,
      "byteLength": 2220,
      "byteOffset": 0
    },
    {
      "buffer": 0,
      "byteLength": 2220,
      "byteOffset": 2220
    },
    {
      "buffer": 0,
      "byteLength": 1480,
      "byteOffset": 4440
    },
    {
      "buffer": 0,
      "byteLength": 1440,
      "byteOffset": 5920
    },
    {
      "buffer": 0,
      "byteLength": 2220,
      "byteOffset": 7360
    },
    {
      "buffer": 0,
      "byteLength": 2220,
      "byteOffset": 9580
    },
    {
      "buffer": 0,
      "byteLength": 2220,
      "byteOffset": 11800
    },
    {
      "buffer": 0,
      "byteLength": 2220,
      "byteOffset": 14020
    },
    {
      "buffer": 0,
      "byteLength": 45528,
      "byteOffset": 16240
    },
    {
      "buffer": 0,
      "byteLength": 45528,
      "byteOffset": 61768
    },
    {
      "buffer": 0,
      "byteLength": 30352,
      "byteOffset": 107296
    },
    {
      "buffer": 0,
      "byteLength": 7800,
      "byteOffset": 137648
    },
    {
      "buffer": 0,
      "byteLength": 45528,
      "byteOffset": 145448
    },
    {
      "buffer": 0,
      "byteLength": 45528,
      "byteOffset": 190976
    },
    {
      "buffer": 0,
      "byteLength": 45528,
      "byteOffset": 236504
    },
    {
      "buffer": 0,
      "byteLength": 45528,
      "byteOffset": 282032
    },
    {
      "buffer": 0,
      "byteLength": 404,
      "byteOffset": 327560
    },
    {
      "buffer": 0,
      "byteLength": 808,
      "byteOffset": 327964
    },
    {
      "buffer": 0,
      "byteLength": 808,
      "byteOffset": 328772
    }
  ],
  "buffers": [
    {
      "byteLength": 329580,
      "uri": "data:application/octet-stream;base64,"
    }
  ]
}
