{
    "asset" : {
        "generator" : "Khronos glTF Blender I/O v1.7.33",
        "version" : "2.0"
    },
    "scene" : 0,
    "scenes" : [
        {
            "name" : "Scene",
            "nodes" : [
                0
            ]
        }
    ],
    "nodes" : [
        {
            "mesh" : 0,
            "name" : "\u679d2",
            "rotation" : [
                0.6597402691841125,
                0,
                0,
                0.7514936923980713
            ],
            "scale" : [
                0.13073121011257172,
                0.1307312399148941,
                0.1307312399148941
            ]
        }
    ],
    "animations" : [
        {
            "channels" : [
                {
                    "sampler" : 0,
                    "target" : {
                        "node" : 0,
                        "path" : "weights"
                    }
                }
            ],
            "name" : "Key.011Action.001",
            "samplers" : [
                {
                    "input" : 6,
                    "interpolation" : "LINEAR",
                    "output" : 7
                }
            ]
        }
    ],
    "meshes" : [
        {
            "extras" : {
                "targetNames" : [
                    "\u30b7\u30e5\u30ea\u30f3\u30af\u30e9\u30c3\u30d7"
                ]
            },
            "name" : "\u5186\u67f1.014",
            "primitives" : [
                {
                    "attributes" : {
                        "POSITION" : 0,
                        "NORMAL" : 1,
                        "TEXCOORD_0" : 2
                    },
                    "indices" : 3,
                    "targets" : [
                        {
                            "POSITION" : 4,
                            "NORMAL" : 5
                        }
                    ]
                }
            ],
            "weights" : [
                1
            ]
        }
    ],
    "accessors" : [
        {
            "bufferView" : 0,
            "componentType" : 5126,
            "count" : 9562,
            "max" : [
                6.867947101593018,
                52.5614013671875,
                0.3878101408481598
            ],
            "min" : [
                -6.867947101593018,
                -34.23704147338867,
                -108.093017578125
            ],
            "type" : "VEC3"
        },
        {
            "bufferView" : 1,
            "componentType" : 5126,
            "count" : 9562,
            "type" : "VEC3"
        },
        {
            "bufferView" : 2,
            "componentType" : 5126,
            "count" : 9562,
            "type" : "VEC2"
        },
        {
            "bufferView" : 3,
            "componentType" : 5123,
            "count" : 31140,
            "type" : "SCALAR"
        },
        {
            "bufferView" : 4,
            "componentType" : 5126,
            "count" : 9562,
            "max" : [
                6.445660591125488,
                22.21063995361328,
                96.203125
            ],
            "min" : [
                -6.445660591125488,
                -29.429180145263672,
                -2.9181442260742188
            ],
            "type" : "VEC3"
        },
        {
            "bufferView" : 5,
            "componentType" : 5126,
            "count" : 9562,
            "type" : "VEC3"
        },
        {
            "bufferView" : 6,
            "componentType" : 5126,
            "count" : 101,
            "max" : [
                4.166666666666667
            ],
            "min" : [
                0
            ],
            "type" : "SCALAR"
        },
        {
            "bufferView" : 7,
            "componentType" : 5126,
            "count" : 101,
            "type" : "SCALAR"
        }
    ],
    "bufferViews" : [
        {
            "buffer" : 0,
            "byteLength" : 114744,
            "byteOffset" : 0
        },
        {
            "buffer" : 0,
            "byteLength" : 114744,
            "byteOffset" : 114744
        },
        {
            "buffer" : 0,
            "byteLength" : 76496,
            "byteOffset" : 229488
        },
        {
            "buffer" : 0,
            "byteLength" : 62280,
            "byteOffset" : 305984
        },
        {
            "buffer" : 0,
            "byteLength" : 114744,
            "byteOffset" : 368264
        },
        {
            "buffer" : 0,
            "byteLength" : 114744,
            "byteOffset" : 483008
        },
        {
            "buffer" : 0,
            "byteLength" : 404,
            "byteOffset" : 597752
        },
        {
            "buffer" : 0,
            "byteLength" : 404,
            "byteOffset" : 598156
        }
    ],
    "buffers" : [
        {
            "byteLength" : 598560,
            "uri" : "data:application/octet-stream;base64,"
        }
    ]
}
